<svg xmlns="http://www.w3.org/2000/svg" width="104.929" height="102.771" viewBox="0 0 104.929 102.771">
    <path d="M187.532 90.15h41.879a81.71 81.71 0 0 1 3.264 21.9 49.811 49.811 0 0 1-10.93 32.372c10.626-22.22-25.617-48.463-34.156-54.27zm-9.165 34.5-.3-6.357 9.355-2.922.361 6.414-9.488 2.865zm52.012-35.257-.133-.436h-22.031L196.564 67.93h-.417c-18.273 3.378-32.258 8.008-41.613 13.776a42.792 42.792 0 0 0-4.63 3.435c-19.374 14.839-25.256 36.926-17.837 64.327h42.713s-50.266-36.053-29.905-58.255a60.719 60.719 0 0 1 5.693-5.161 54.764 54.764 0 0 1 4.5-3.15c9.146-5.693 22.884-10.19 40.8-13.549l10.962 19.583h-21.082l1.385 25.124-10.361 3.34 1.575 35.6H158.4l9.659 17.7c19.393-3.586 32.695-8.311 41.4-13.7a45.367 45.367 0 0 0 4.554-3.188c.455-.361.873-.721 1.29-1.082 17.647-14.858 22.771-35.921 15.18-63.245z" transform="translate(-128.967 -67.93)" style="fill:#fff"/>
</svg>
