<svg xmlns="http://www.w3.org/2000/svg" width="102.443" height="102.558" viewBox="0 0 102.443 102.558">
    <g data-name="Layer 1">
        <path data-name="Path 56" d="M118.793 118.818H16.35V16.26h102.443v102.558z" transform="translate(-16.35 -16.26)" style="fill-rule:evenodd;fill:#c24b71"/>
        <path data-name="Path 57" d="M118.425 118.494H17.55V17.51h100.875v100.984z" transform="translate(-16.782 -16.71)" style="fill:#fff;fill-rule:evenodd"/>
        <path data-name="Path 58" d="M47.753 26A49.238 49.238 0 0 0 25.8 41.687V26z" transform="translate(-19.752 -19.766)" style="fill-rule:evenodd;fill:#c24b71"/>
        <path data-name="Path 59" d="M116.089 31.753c-5.543-1.2-10.452 1.082-14.817 3.655-7.962-7.04-21.294-5.28-30.542-2.317A40.759 40.759 0 0 0 57.514 40.4c-3.085 2.739-5.2 6.509-3.77 10.56 1.312 3.315 4.826 4.711 7.879 5.543.314.141.717.4.742.768a.723.723 0 0 1-.454.57c-2.112 1.03-4.57 1.28-6.855 1.882a68.34 68.34 0 0 0-20.065 8.564 45.014 45.014 0 0 1-9.191-7.31V45.1c6.682-9.792 16.839-15.361 26.881-19.124h63.4v5.76z" transform="translate(-19.752 -19.759)" style="fill-rule:evenodd;fill:#c24b71"/>
        <path data-name="Path 60" d="M107.721 39.847c-8.615 5.12-16.468 13.812-21.321 22.318-2.8 4.653-5.171 9.415-7.482 14.164-8.506.883-18.068 1.146-26.113-.883-1.427-.371-2.887-.717-4.256-1.171 5.651-6.343 13.089-8.884 20.692-10.8 1.2-.429 2.8-.858 3.2-2.343 0-1.28-1.2-2-2.029-2.912a6.959 6.959 0 0 1-1.882-7.309c2.287-7.73 10.594-12.011 17.615-13.842 7.015-1.703 15.816-1.703 21.576 2.778z" transform="translate(-27.941 -23.372)" style="fill-rule:evenodd;fill:#c24b71"/>
        <path data-name="Path 61" d="M145.531 37.691V52.9c-10.592 12.018-23.681 18.9-37.851 22.693 6.112-11.585 12.9-22.919 23.355-32.642 2.2 2.6 2.2 6.938.57 9.824-.8 1.709-2.458 3.648-4.4 3.994-.826.256-1.971-.058-2.426.915a1.338 1.338 0 0 0 .083 1.28c.64.742 1.683.6 2.56.429 3.8-1.28 5.965-5.338 6.938-8.877.742-3.283-.314-6.451-1.773-9.165 3.744-2.656 8.077-4.883 12.961-3.68z" transform="translate(-49.226 -23.847)" style="fill-rule:evenodd;fill:#c24b71"/>
        <path data-name="Path 62" d="M136.028 112.315c-7.968 5.568-17.217 8.9-27.72 7.508a69.48 69.48 0 0 1-11.015-2.56c5.76-5.165 11.1-10.881 10.957-18.67a10.866 10.866 0 0 0-1.683-5.363 2.343 2.343 0 0 0-1.773-.915 1.4 1.4 0 0 0-1.139.858c-.544 1.485 1.485 1.8 1.856 3 1.37 2.656.544 6.2-.512 8.736-1.971 4.423-5.939 8.276-9.818 11.674a86.4 86.4 0 0 1-13.991-7.623c6.855-5.619 11.521-12.673 15.527-19.726 14.676-3.117 28-9.428 39.311-20.7z" transform="translate(-39.69 -35.076)" style="fill-rule:evenodd;fill:#c24b71"/>
        <path data-name="Path 63" d="M33.34 90.688a44.994 44.994 0 0 0-7.54 7.936V84.8a49.578 49.578 0 0 0 7.54 5.888z" transform="translate(-19.752 -40.932)" style="fill-rule:evenodd;fill:#c24b71"/>
        <path data-name="Path 64" d="M72.909 100.656c-2.8 6.163-5.677 12.3-10.605 17.582-4.365-2.714-8.736-5.939-14.388-5.165a6.335 6.335 0 0 0-4.877 3.738 4.813 4.813 0 0 0 1.043 4.9c2.394 2.227 5.536 2.656 8.82 2.624a19.252 19.252 0 0 0 9.792-3.507 135.959 135.959 0 0 0 12.954 8.16c-7.245 3.84-15.438 6.311-24.43 5.171-6.65-.89-13.991-5.28-16-12.193-2.253-7.335.429-14.721 4.339-20.519a40.426 40.426 0 0 1 2.56-3.373c9.274 3.341 20.379 3.687 30.8 2.56z" transform="translate(-22.846 -45.709)" style="fill-rule:evenodd;fill:#c24b71"/>
        <path data-name="Path 65" d="M66.636 128.892c-3.8 2.912-10.016 4.224-14.439 1.658a3.341 3.341 0 0 1-1.6-3.059 3.2 3.2 0 0 1 2.055-2.707c3.2-1.28 6.65 0 9.389 1.37 1.567.824 3.084 1.765 4.595 2.738z" transform="translate(-28.675 -55.135)" style="fill-rule:evenodd;fill:#c24b71"/>
        <path data-name="Path 66" d="M53.6 151.986c7.68-.429 14.388-3.027 20.724-6.6 7.847 4.058 17.038 7.367 26.516 4.883a36.188 36.188 0 0 0 15.246-8.532v15.642H25.8V140.51c7.565 7.936 16.73 12.161 27.8 11.476z" transform="translate(-19.752 -60.986)" style="fill-rule:evenodd;fill:#c24b71"/>
    </g>
</svg>
