<svg xmlns="http://www.w3.org/2000/svg" width="190" height="188" viewBox="0 0 190 188">
    <g transform="translate(32.893 25.5)">
        <ellipse data-name="Ellipse 6" cx="95" cy="94" rx="95" ry="94" transform="translate(-32.893 -25.5)" style="fill:#fff"/>
        <path data-name="Path 21" d="M32.319 80.56c3.326.482 11.832-19.518 12.444-19.963s12.861.524 11.244-6c-3.683 3.118-5.411-.259-5.244-2.715s3.285-7.681 4.1-7.329 2.233 3.266 5.18.57c-4.461.426-3.41-6.1-2.025-6.884s6.778-3.16 8.339-4.675 1.682-6.291 4.865-5.24.834 7.825 1.784 10.1 9.558 9.553 9.414 11.846-3.762 1.886-3.683 5.092c0 1.3 2.256 2.265 2.316 3.78S78.62 61.8 78.62 61.8a2.441 2.441 0 0 1 1.728 2.863c-.426 2.27-3.174 1.584-4.054 2.057-.412.227 4.221 5.309.769 9.141-3.113 3.665-18.694-.195-21.691.968-5.638 2.191-10.308 9.794-7.2 13.394S62 105.425 64.786 115.066c4.776 12.638-6.931 34.7-13.477 18.7-9.265 6.234 10.109 29.134 37.286-5.33 20.825-28.024 10.642-79.046 4.489-90.508S58.3-13.112 27.566 4.41c-38.231 20.885-20.047 71.415 4.753 76.15z" transform="translate(8.549)" style="fill:#271d20"/>
    </g>
</svg>
