<svg xmlns="http://www.w3.org/2000/svg" width="21.094" height="24" viewBox="0 0 21.094 24">
    <g data-name="ic user">
        <g data-name="Group 3">
            <g data-name="Group 2">
                <path data-name="Path 24" d="M127.328 0a6.328 6.328 0 1 0 6.328 6.328A6.335 6.335 0 0 0 127.328 0zm0 11.25a4.922 4.922 0 1 1 4.922-4.922 4.928 4.928 0 0 1-4.922 4.922z" transform="translate(-116.781)" style="fill:#271d20"/>
            </g>
        </g>
        <g data-name="Group 5">
            <g data-name="Group 4">
                <path data-name="Path 25" d="M49.421 302.728A9.021 9.021 0 0 0 42.953 300h-2.812a9.021 9.021 0 0 0-6.467 2.728A9.222 9.222 0 0 0 31 309.235a.7.7 0 0 0 .7.7h19.691a.7.7 0 0 0 .7-.7 9.222 9.222 0 0 0-2.67-6.507zm-16.983 5.8a7.782 7.782 0 0 1 7.7-7.125h2.813a7.782 7.782 0 0 1 7.7 7.125z" transform="translate(-31 -285.937)" style="fill:#271d20"/>
            </g>
        </g>
    </g>
</svg>
