<svg xmlns="http://www.w3.org/2000/svg" width="41.581" height="64" viewBox="0 0 41.581 64">
    <path data-name="Path 21" d="M17.209 35.074c1.448.21 5.151-8.5 5.418-8.691s5.6.228 4.9-2.612c-1.6 1.357-2.356-.113-2.283-1.182s1.43-3.344 1.787-3.191.972 1.422 2.255.248c-1.942.186-1.485-2.656-.881-3a23.746 23.746 0 0 0 3.631-2.035c.68-.66.732-2.739 2.118-2.281s.363 3.407.777 4.4 4.161 4.159 4.1 5.158-1.638.821-1.6 2.217c0 .565.982.986 1.009 1.646s-1.061 1.156-1.061 1.156a1.063 1.063 0 0 1 .752 1.247c-.186.988-1.382.69-1.765.9-.18.1 1.838 2.312.335 3.98-1.355 1.6-8.139-.085-9.444.422-2.455.954-4.488 4.264-3.134 5.831S30.132 45.9 31.344 50.1c2.08 5.5-3.017 15.108-5.868 8.141-4.034 2.715 4.4 12.685 16.233-2.32 9.067-12.2 4.633-34.414 1.954-39.4S28.52-5.708 15.139 1.92c-16.644 9.093-8.727 31.092 2.07 33.154z" transform="translate(-5.558)" style="fill:#271d20"/>
</svg>
