<svg xmlns="http://www.w3.org/2000/svg" width="24" height="24" viewBox="0 0 24 24">
    <g data-name="Group 1">
        <path data-name="Path 22" d="m23.779 22.695-6.2-6.1a9.8 9.8 0 0 0 2.62-6.66A10.019 10.019 0 0 0 10.1 0 10.018 10.018 0 0 0 .006 9.937a10.018 10.018 0 0 0 10.1 9.937 10.155 10.155 0 0 0 6.356-2.219l6.221 6.122a.785.785 0 0 0 1.1 0 .757.757 0 0 0-.004-1.082zM10.1 18.345a8.477 8.477 0 0 1-8.54-8.408 8.477 8.477 0 0 1 8.54-8.408 8.477 8.477 0 0 1 8.544 8.408 8.477 8.477 0 0 1-8.544 8.408z" transform="translate(-.006)" style="fill:#271d20"/>
    </g>
</svg>
