<svg xmlns="http://www.w3.org/2000/svg" width="30" height="30" viewBox="0 0 30 30">
    <g data-name="ic - t" transform="translate(-945 -5115)">
        <circle data-name="Ellipse 7" cx="15" cy="15" r="15" transform="translate(945 5115)" style="fill:#fff"/>
        <path data-name="Icon awesome-twitter" d="M12.561 6.215c.009.124.009.249.009.373a8.108 8.108 0 0 1-8.164 8.164A8.108 8.108 0 0 1 0 13.463a5.936 5.936 0 0 0 .693.036 5.746 5.746 0 0 0 3.562-1.226 2.874 2.874 0 0 1-2.683-1.99 3.618 3.618 0 0 0 .542.044 3.035 3.035 0 0 0 .755-.1 2.87 2.87 0 0 1-2.3-2.816v-.033a2.89 2.89 0 0 0 1.3.364A2.874 2.874 0 0 1 .977 3.9a8.156 8.156 0 0 0 5.916 3 3.239 3.239 0 0 1-.071-.657 2.872 2.872 0 0 1 4.966-1.963 5.649 5.649 0 0 0 1.821-.693 2.862 2.862 0 0 1-1.261 1.581A5.752 5.752 0 0 0 14 4.731a6.168 6.168 0 0 1-1.439 1.483z" transform="translate(953 5120.619)" style="fill:#271d20"/>
    </g>
</svg>
